<mxfile host="app.diagrams.net" modified="2024-01-30T01:13:48.517Z" agent="Mozilla/5.0 (Windows NT 10.0; Win64; x64) AppleWebKit/537.36 (KHTML, like Gecko) Chrome/121.0.0.0 Safari/537.36" version="23.0.2" etag="OqJkgbA0b-XYuIK5nOyy" type="device">
  <diagram id="C5RBs43oDa-KdzZeNtuy" name="Page-1">
    <mxGraphModel dx="794" dy="662" grid="1" gridSize="10" guides="1" tooltips="1" connect="1" arrows="1" fold="1" page="1" pageScale="1" pageWidth="827" pageHeight="1169" math="0" shadow="0">
      <root>
        <mxCell id="WIyWlLk6GJQsqaUBKTNV-0" />
        <mxCell id="WIyWlLk6GJQsqaUBKTNV-1" parent="WIyWlLk6GJQsqaUBKTNV-0" />
        <mxCell id="hYAmLDflgFAAzl1gUj2w-0" value="시작" style="ellipse;whiteSpace=wrap;html=1;fontFamily=Verdana;" vertex="1" parent="WIyWlLk6GJQsqaUBKTNV-1">
          <mxGeometry x="110" y="10" width="70" height="30" as="geometry" />
        </mxCell>
        <mxCell id="hYAmLDflgFAAzl1gUj2w-1" value="종료" style="ellipse;whiteSpace=wrap;html=1;fontFamily=Verdana;" vertex="1" parent="WIyWlLk6GJQsqaUBKTNV-1">
          <mxGeometry x="110" y="510" width="70" height="30" as="geometry" />
        </mxCell>
        <mxCell id="hYAmLDflgFAAzl1gUj2w-2" value="0.75 더할 a,&lt;br&gt;1.03 뺄&amp;nbsp; b,&lt;br&gt;t선언" style="shape=hexagon;perimeter=hexagonPerimeter2;whiteSpace=wrap;html=1;fixedSize=1;fontFamily=Verdana;" vertex="1" parent="WIyWlLk6GJQsqaUBKTNV-1">
          <mxGeometry x="65" y="90" width="160" height="50" as="geometry" />
        </mxCell>
        <mxCell id="hYAmLDflgFAAzl1gUj2w-3" value="t에 0대입" style="shape=parallelogram;perimeter=parallelogramPerimeter;whiteSpace=wrap;html=1;fixedSize=1;fontFamily=Verdana;" vertex="1" parent="WIyWlLk6GJQsqaUBKTNV-1">
          <mxGeometry x="85" y="200" width="120" height="20" as="geometry" />
        </mxCell>
        <mxCell id="hYAmLDflgFAAzl1gUj2w-5" value="a에 0.75씩 더한다,&lt;br&gt;b에 1.03씩 뺀다" style="shape=parallelogram;perimeter=parallelogramPerimeter;whiteSpace=wrap;html=1;fixedSize=1;fontFamily=Verdana;" vertex="1" parent="WIyWlLk6GJQsqaUBKTNV-1">
          <mxGeometry x="65" y="270" width="160" height="40" as="geometry" />
        </mxCell>
        <mxCell id="hYAmLDflgFAAzl1gUj2w-12" style="edgeStyle=orthogonalEdgeStyle;rounded=0;orthogonalLoop=1;jettySize=auto;html=1;exitX=0.5;exitY=1;exitDx=0;exitDy=0;entryX=0.5;entryY=0;entryDx=0;entryDy=0;fontFamily=Verdana;" edge="1" parent="WIyWlLk6GJQsqaUBKTNV-1" source="hYAmLDflgFAAzl1gUj2w-6" target="hYAmLDflgFAAzl1gUj2w-11">
          <mxGeometry relative="1" as="geometry" />
        </mxCell>
        <mxCell id="hYAmLDflgFAAzl1gUj2w-6" value="&amp;nbsp;h: 산 높이를 기억할 변수&lt;br&gt;t : 초를 기억할 변수&lt;br&gt;a: a의 고도를 기억할 변수&lt;br&gt;b : b의 고도를 기억할 변수" style="shape=hexagon;perimeter=hexagonPerimeter2;whiteSpace=wrap;html=1;fixedSize=1;fontFamily=Verdana;" vertex="1" parent="WIyWlLk6GJQsqaUBKTNV-1">
          <mxGeometry x="350" y="80" width="190" height="70" as="geometry" />
        </mxCell>
        <mxCell id="hYAmLDflgFAAzl1gUj2w-14" style="edgeStyle=orthogonalEdgeStyle;rounded=0;orthogonalLoop=1;jettySize=auto;html=1;exitX=0.5;exitY=1;exitDx=0;exitDy=0;entryX=0.5;entryY=0;entryDx=0;entryDy=0;fontFamily=Verdana;" edge="1" parent="WIyWlLk6GJQsqaUBKTNV-1" source="hYAmLDflgFAAzl1gUj2w-7" target="hYAmLDflgFAAzl1gUj2w-6">
          <mxGeometry relative="1" as="geometry" />
        </mxCell>
        <mxCell id="hYAmLDflgFAAzl1gUj2w-7" value="시작" style="ellipse;whiteSpace=wrap;html=1;fontFamily=Verdana;" vertex="1" parent="WIyWlLk6GJQsqaUBKTNV-1">
          <mxGeometry x="410" y="10" width="70" height="30" as="geometry" />
        </mxCell>
        <mxCell id="hYAmLDflgFAAzl1gUj2w-8" value="종료" style="ellipse;whiteSpace=wrap;html=1;fontFamily=Verdana;" vertex="1" parent="WIyWlLk6GJQsqaUBKTNV-1">
          <mxGeometry x="410" y="500" width="70" height="30" as="geometry" />
        </mxCell>
        <mxCell id="hYAmLDflgFAAzl1gUj2w-15" style="edgeStyle=orthogonalEdgeStyle;rounded=0;orthogonalLoop=1;jettySize=auto;html=1;exitX=0.5;exitY=1;exitDx=0;exitDy=0;entryX=0.5;entryY=0;entryDx=0;entryDy=0;fontFamily=Verdana;" edge="1" parent="WIyWlLk6GJQsqaUBKTNV-1" source="hYAmLDflgFAAzl1gUj2w-11" target="hYAmLDflgFAAzl1gUj2w-13">
          <mxGeometry relative="1" as="geometry" />
        </mxCell>
        <mxCell id="hYAmLDflgFAAzl1gUj2w-11" value="h=1753&lt;br&gt;t=0&lt;br&gt;a=0&lt;br&gt;b=h (b=1753)" style="rounded=0;whiteSpace=wrap;html=1;fontFamily=Verdana;" vertex="1" parent="WIyWlLk6GJQsqaUBKTNV-1">
          <mxGeometry x="395" y="200" width="100" height="60" as="geometry" />
        </mxCell>
        <mxCell id="hYAmLDflgFAAzl1gUj2w-21" style="edgeStyle=orthogonalEdgeStyle;rounded=0;orthogonalLoop=1;jettySize=auto;html=1;exitX=0.5;exitY=1;exitDx=0;exitDy=0;entryX=0.5;entryY=0;entryDx=0;entryDy=0;fontFamily=Verdana;" edge="1" parent="WIyWlLk6GJQsqaUBKTNV-1" source="hYAmLDflgFAAzl1gUj2w-13" target="hYAmLDflgFAAzl1gUj2w-16">
          <mxGeometry relative="1" as="geometry" />
        </mxCell>
        <mxCell id="hYAmLDflgFAAzl1gUj2w-23" style="edgeStyle=orthogonalEdgeStyle;rounded=0;orthogonalLoop=1;jettySize=auto;html=1;exitX=1;exitY=0.5;exitDx=0;exitDy=0;fontFamily=Verdana;" edge="1" parent="WIyWlLk6GJQsqaUBKTNV-1" source="hYAmLDflgFAAzl1gUj2w-13" target="hYAmLDflgFAAzl1gUj2w-22">
          <mxGeometry relative="1" as="geometry" />
        </mxCell>
        <mxCell id="hYAmLDflgFAAzl1gUj2w-13" value="a &amp;gt;= b" style="rhombus;whiteSpace=wrap;html=1;fontFamily=Verdana;" vertex="1" parent="WIyWlLk6GJQsqaUBKTNV-1">
          <mxGeometry x="381.25" y="320" width="127.5" height="40" as="geometry" />
        </mxCell>
        <mxCell id="hYAmLDflgFAAzl1gUj2w-18" style="edgeStyle=orthogonalEdgeStyle;rounded=0;orthogonalLoop=1;jettySize=auto;html=1;exitX=0.5;exitY=1;exitDx=0;exitDy=0;entryX=0.5;entryY=0;entryDx=0;entryDy=0;fontFamily=Verdana;" edge="1" parent="WIyWlLk6GJQsqaUBKTNV-1" source="hYAmLDflgFAAzl1gUj2w-16" target="hYAmLDflgFAAzl1gUj2w-8">
          <mxGeometry relative="1" as="geometry" />
        </mxCell>
        <mxCell id="hYAmLDflgFAAzl1gUj2w-16" value="print t" style="shape=parallelogram;perimeter=parallelogramPerimeter;whiteSpace=wrap;html=1;fixedSize=1;fontFamily=Verdana;" vertex="1" parent="WIyWlLk6GJQsqaUBKTNV-1">
          <mxGeometry x="392.5" y="420" width="105" height="20" as="geometry" />
        </mxCell>
        <mxCell id="hYAmLDflgFAAzl1gUj2w-19" value="yes" style="text;html=1;strokeColor=none;fillColor=none;align=center;verticalAlign=middle;whiteSpace=wrap;rounded=0;fontFamily=Verdana;" vertex="1" parent="WIyWlLk6GJQsqaUBKTNV-1">
          <mxGeometry x="392.5" y="380" width="36" height="30" as="geometry" />
        </mxCell>
        <mxCell id="hYAmLDflgFAAzl1gUj2w-24" style="edgeStyle=orthogonalEdgeStyle;rounded=0;orthogonalLoop=1;jettySize=auto;html=1;exitX=0.5;exitY=0;exitDx=0;exitDy=0;fontFamily=Verdana;" edge="1" parent="WIyWlLk6GJQsqaUBKTNV-1" source="hYAmLDflgFAAzl1gUj2w-22">
          <mxGeometry relative="1" as="geometry">
            <mxPoint x="440" y="290" as="targetPoint" />
            <Array as="points">
              <mxPoint x="650" y="290" />
              <mxPoint x="451" y="290" />
            </Array>
          </mxGeometry>
        </mxCell>
        <mxCell id="hYAmLDflgFAAzl1gUj2w-22" value="t=t+1&lt;br&gt;a=a+0.73&lt;br&gt;b=b-1.03" style="rounded=0;whiteSpace=wrap;html=1;fontFamily=Verdana;" vertex="1" parent="WIyWlLk6GJQsqaUBKTNV-1">
          <mxGeometry x="590" y="315" width="120" height="50" as="geometry" />
        </mxCell>
        <mxCell id="hYAmLDflgFAAzl1gUj2w-25" value="no" style="text;html=1;strokeColor=none;fillColor=none;align=center;verticalAlign=middle;whiteSpace=wrap;rounded=0;fontFamily=Verdana;" vertex="1" parent="WIyWlLk6GJQsqaUBKTNV-1">
          <mxGeometry x="530" y="340" width="36" height="30" as="geometry" />
        </mxCell>
        <mxCell id="hYAmLDflgFAAzl1gUj2w-26" value="&lt;font&gt;&lt;br&gt;&lt;b&gt;예제) 두 사람 등산&lt;/b&gt;&lt;br&gt;&lt;br&gt;시작&lt;br&gt;h: 산의 높이를 기억할 변수를 준비&lt;br&gt;t: 초를 기억할 변수&lt;br&gt;a:&amp;nbsp; a의 고도를 기억할 변수 준비&lt;br&gt;b:&amp;nbsp; b의 고도를 기억할 변수 준비&lt;br&gt;&lt;br&gt;h=1753&lt;br&gt;t=0&lt;br&gt;a=0&lt;br&gt;b=1753 (b=h)&lt;br&gt;&lt;br&gt;a&amp;gt;=b인지 확인&lt;br&gt;&lt;br&gt;거짓이면,&amp;nbsp;&lt;br&gt;t=t+1,&lt;br&gt;a=a+0.75,&lt;br&gt;b=b-1.03&lt;br&gt;&lt;br&gt;다시 a&amp;gt;=b인지 반복해서 확인&lt;br&gt;&lt;br&gt;참이면, print t&lt;br&gt;종료&lt;br&gt;&lt;/font&gt;" style="text;html=1;strokeColor=none;fillColor=none;spacing=5;spacingTop=-20;whiteSpace=wrap;overflow=hidden;rounded=0;fontFamily=Verdana;labelBorderColor=default;" vertex="1" parent="WIyWlLk6GJQsqaUBKTNV-1">
          <mxGeometry x="183.75" y="340" width="211.25" height="360" as="geometry" />
        </mxCell>
      </root>
    </mxGraphModel>
  </diagram>
</mxfile>
